# xmcd CD database file
#
# Track frame offsets:
#	150
#	24760
#	49565
#	73045
#	97375
#	121502
#	145370
#	168670
#	193052
#	217812
#
# Disc length: 3219 seconds
#
# Revision: 0
# Processed by: cddbd v1.5.2PL0 Copyright (c) Steve Scherf et al.
# Submitted via: CDex 1.51
#
DISCID=8a0c910a
DTITLE=Varity - SPA心靈樂集 30芬 SPA 襌系列 disk 2
DYEAR=1900
DGENRE=New Age
TTITLE0=風吹草會動
TTITLE1=心靈之鈴
TTITLE2=喜悅的訊息
TTITLE3=寧靜的光亮
TTITLE4=閃動中的樹葉
TTITLE5=日初的腳步聲
TTITLE6=接近
TTITLE7=觸碰
TTITLE8=風和澍的互動
TTITLE9=打開窗
EXTD=
EXTT0=
EXTT1=
EXTT2=
EXTT3=
EXTT4=
EXTT5=
EXTT6=
EXTT7=
EXTT8=
EXTT9=
PLAYORDER=
